<svg xmlns="http://www.w3.org/2000/svg" xmlns:xlink="http://www.w3.org/1999/xlink" viewBox="0,0,256,256" width="150px" height="150px" fill-rule="nonzero"><g fill="#5e1fff" fill-rule="nonzero" stroke="none" stroke-width="1" stroke-linecap="butt" stroke-linejoin="miter" stroke-miterlimit="10" stroke-dasharray="" stroke-dashoffset="0" font-family="none" font-weight="none" font-size="none" text-anchor="none" style="mix-blend-mode: normal"><g transform="scale(5.12,5.12)"><path d="M8,3.01172c-1.67564,0 -3.14828,0.44393 -4.23633,1.29883c-1.08805,0.8549 -1.75195,2.15347 -1.75195,3.58984c0,2.87275 2.59308,5.08789 5.98828,5.08789c1.74123,0 3.2347,-0.51087 4.30469,-1.42578c1.06998,-0.91491 1.68359,-2.24005 1.68359,-3.66211c-0.00031,-0.01499 -0.00096,-0.02996 -0.00195,-0.04492c-0.12468,-2.74403 -2.61308,-4.84375 -5.98633,-4.84375zM3,15c-0.55226,0.00006 -0.99994,0.44774 -1,1v29c0.00006,0.55226 0.44774,0.99994 1,1h10c0.55226,-0.00006 0.99994,-0.44774 1,-1v-9.30078v-19.69922c-0.00006,-0.55226 -0.44774,-0.99994 -1,-1zM18,15c-0.55226,0.00006 -0.99994,0.44774 -1,1v29.09961c0.00006,0.55226 0.44774,0.99994 1,1h10c0.55226,-0.00006 0.99994,-0.44774 1,-1v-16v-0.29883v-0.30078c0,-1.96667 1.53333,-3.5 3.5,-3.5c1.96667,0 3.5,1.53333 3.5,3.5v16.5c0.00006,0.55226 0.44774,0.99994 1,1h10c0.55226,-0.00006 0.99994,-0.44774 1,-1v-17c0,-4.14409 -1.21832,-7.41366 -3.26367,-9.63867c-2.04536,-2.22501 -4.8915,-3.36133 -7.93555,-3.36133c-3.9082,0 -6.27819,1.42177 -7.80078,2.58398v-1.58398c-0.00006,-0.55226 -0.44774,-0.99994 -1,-1z"></path></g></g></svg>